<svg width="20" height="20" viewBox="0 0 20 20" fill="none" xmlns="http://www.w3.org/2000/svg">
<path fill-rule="evenodd" clip-rule="evenodd" d="M0.826441 13.0336L0.0664406 18.3136C0.0115509 18.7201 0.135153 19.1305 0.405422 19.4391C0.675692 19.7477 1.06622 19.9244 1.47644 19.9236H1.68644L6.96644 19.1636C7.68214 19.0649 8.34591 18.7348 8.85644 18.2236L18.5964 8.47356C20.4913 6.51167 20.4642 3.39314 18.5355 1.46447C16.6069 -0.464202 13.4883 -0.491301 11.5264 1.40356L1.76644 11.1436C1.25524 11.6541 0.925112 12.3179 0.826441 13.0336ZM7.74644 17.1636C7.46985 17.4292 7.12273 17.6097 6.74644 17.6836L1.53644 18.3736L2.26644 13.2036C2.34032 12.8273 2.52082 12.4801 2.78644 12.2036L12.5364 2.46356C13.1934 1.78913 14.0949 1.40874 15.0364 1.40874C15.9779 1.40874 16.8795 1.78913 17.5364 2.46356C18.1954 3.11864 18.5659 4.00942 18.5659 4.93856C18.5659 5.8677 18.1954 6.75848 17.5364 7.41356L7.74644 17.1636Z" fill="#6B9080"/>
<path d="M14.5664 4.37356C14.8619 4.0982 15.3224 4.10633 15.6081 4.39194C15.8937 4.67755 15.9018 5.13805 15.6264 5.43356L11.4164 9.64356C11.1236 9.93601 10.6493 9.93601 10.3564 9.64356C10.064 9.35074 10.064 8.87638 10.3564 8.58356L14.5664 4.37356Z" fill="#6B9080"/>
</svg>
